<svg width="25" height="24" viewBox="0 0 25 24" fill="none" xmlns="http://www.w3.org/2000/svg">
<path d="M22.7506 0H1.56193C1.21327 0 0.878894 0.138503 0.632356 0.385041C0.385818 0.631579 0.247314 0.965957 0.247314 1.31461V22.5036C0.247402 22.8522 0.385945 23.1865 0.632473 23.4329C0.879001 23.6794 1.21333 23.8179 1.56193 23.8179H12.969V14.5944H9.8651V10.9999H12.969V8.34882C12.969 5.27235 14.848 3.59749 17.5923 3.59749C18.907 3.59749 20.0366 3.69508 20.3661 3.73907V6.95415L18.4627 6.95515C16.9701 6.95515 16.6813 7.66439 16.6813 8.7051V11.0002H20.2408L19.7773 14.5947H16.6813V23.8179H22.7509C23.0995 23.8178 23.4338 23.6792 23.6802 23.4327C23.9267 23.1862 24.0652 22.8518 24.0652 22.5032V1.31461C24.0652 0.965957 23.9267 0.631579 23.6801 0.385041C23.4336 0.138503 23.0992 0 22.7506 0Z" fill="#E2E2E2"/>
</svg>
