<svg width="26" height="25" viewBox="0 0 26 25" fill="none" xmlns="http://www.w3.org/2000/svg">
<path d="M22.5938 21.3281H20.1562V7.99805L12.8438 13.7109L5.53125 7.99805V21.3281H3.09375V3.04688H4.55625L12.8438 9.52148L21.1312 3.04688H22.5938V21.3281ZM22.5938 0H3.09375C1.74094 0 0.65625 1.35586 0.65625 3.04688V21.3281C0.65625 22.1362 0.913057 22.9112 1.37018 23.4826C1.8273 24.054 2.44728 24.375 3.09375 24.375H22.5938C23.2402 24.375 23.8602 24.054 24.3173 23.4826C24.7744 22.9112 25.0312 22.1362 25.0312 21.3281V3.04688C25.0312 2.23879 24.7744 1.46381 24.3173 0.892409C23.8602 0.321009 23.2402 0 22.5938 0Z" fill="#E2E2E2"/>
</svg>
