<svg width="25" height="24" viewBox="0 0 25 24" fill="none" xmlns="http://www.w3.org/2000/svg">
<path fill-rule="evenodd" clip-rule="evenodd" d="M7.79527 0.129302C9.06876 0.0706757 9.4748 0.0576477 12.7188 0.0576477C15.9628 0.0576477 16.3688 0.0717614 17.6412 0.129302C18.9136 0.186842 19.7821 0.389862 20.5421 0.684078C21.3379 0.984808 22.0599 1.4549 22.657 2.06288C23.265 2.65891 23.734 3.37979 24.0336 4.17667C24.3289 4.93664 24.5308 5.80517 24.5895 7.07541C24.6481 8.35107 24.6611 8.75711 24.6611 12C24.6611 15.244 24.647 15.65 24.5895 16.9235C24.5319 18.1937 24.3289 19.0623 24.0336 19.8222C23.734 20.6192 23.2642 21.3413 22.657 21.9382C22.0599 22.5462 21.3379 23.0152 20.5421 23.3148C19.7821 23.6101 18.9136 23.8121 17.6434 23.8707C16.3688 23.9293 15.9628 23.9423 12.7188 23.9423C9.4748 23.9423 9.06876 23.9282 7.79527 23.8707C6.52504 23.8132 5.65651 23.6101 4.89654 23.3148C4.09957 23.0151 3.37749 22.5454 2.78057 21.9382C2.17301 21.3418 1.70284 20.6201 1.40286 19.8233C1.10864 19.0634 0.906708 18.1948 0.848082 16.9246C0.789456 15.6489 0.776428 15.2429 0.776428 12C0.776428 8.75602 0.790542 8.34998 0.848082 7.07758C0.905623 5.80517 1.10864 4.93664 1.40286 4.17667C1.70329 3.37988 2.17381 2.65816 2.78166 2.06179C3.37773 1.45436 4.09909 0.984204 4.89545 0.684078C5.65542 0.389862 6.52396 0.187928 7.79419 0.129302H7.79527ZM17.5446 2.27892C16.2852 2.22138 15.9074 2.20944 12.7188 2.20944C9.53017 2.20944 9.15236 2.22138 7.89298 2.27892C6.72806 2.33212 6.0962 2.52646 5.67496 2.69039C5.11801 2.90753 4.71957 3.16483 4.30159 3.58281C3.90537 3.96828 3.60045 4.43754 3.40917 4.95618C3.24524 5.37742 3.0509 6.00928 2.99771 7.1742C2.94016 8.43358 2.92822 8.81139 2.92822 12C2.92822 15.1886 2.94016 15.5664 2.99771 16.8258C3.0509 17.9907 3.24524 18.6226 3.40917 19.0438C3.60025 19.5617 3.90532 20.0318 4.30159 20.4172C4.687 20.8134 5.1571 21.1185 5.67496 21.3096C6.0962 21.4735 6.72806 21.6679 7.89298 21.7211C9.15236 21.7786 9.52908 21.7906 12.7188 21.7906C15.9085 21.7906 16.2852 21.7786 17.5446 21.7211C18.7095 21.6679 19.3414 21.4735 19.7626 21.3096C20.3195 21.0925 20.718 20.8352 21.136 20.4172C21.5322 20.0318 21.8373 19.5617 22.0284 19.0438C22.1923 18.6226 22.3867 17.9907 22.4398 16.8258C22.4974 15.5664 22.5093 15.1886 22.5093 12C22.5093 8.81139 22.4974 8.43358 22.4398 7.1742C22.3867 6.00928 22.1923 5.37742 22.0284 4.95618C21.8112 4.39923 21.5539 4.00079 21.136 3.58281C20.7505 3.18662 20.2812 2.8817 19.7626 2.69039C19.3414 2.52646 18.7095 2.33212 17.5446 2.27892ZM11.1934 15.6815C12.0453 16.0361 12.9939 16.084 13.8771 15.8169C14.7604 15.5498 15.5235 14.9844 16.0362 14.2172C16.5488 13.45 16.7792 12.5286 16.688 11.6104C16.5968 10.6921 16.1897 9.83406 15.5361 9.18269C15.1194 8.76631 14.6157 8.44749 14.061 8.24917C13.5064 8.05086 12.9147 7.97799 12.3285 8.03581C11.7423 8.09362 11.1762 8.28069 10.671 8.58354C10.1658 8.88639 9.734 9.29749 9.40673 9.78724C9.07947 10.277 8.86486 10.8332 8.77836 11.4159C8.69186 11.9985 8.73563 12.5931 8.9065 13.1568C9.07737 13.7205 9.3711 14.2393 9.76654 14.6759C10.162 15.1124 10.6493 15.4559 11.1934 15.6815ZM8.37828 7.6595C8.94828 7.08949 9.62497 6.63734 10.3697 6.32886C11.1145 6.02038 11.9127 5.8616 12.7188 5.8616C13.5249 5.8616 14.3231 6.02038 15.0678 6.32886C15.8126 6.63734 16.4893 7.08949 17.0593 7.6595C17.6293 8.2295 18.0814 8.90619 18.3899 9.65093C18.6984 10.3957 18.8572 11.1939 18.8572 12C18.8572 12.8061 18.6984 13.6043 18.3899 14.3491C18.0814 15.0938 17.6293 15.7705 17.0593 16.3405C15.9081 17.4917 14.3468 18.1384 12.7188 18.1384C11.0908 18.1384 9.52945 17.4917 8.37828 16.3405C7.2271 15.1893 6.58038 13.628 6.58038 12C6.58038 10.372 7.2271 8.81067 8.37828 7.6595ZM20.2186 6.77576C20.3598 6.64252 20.4729 6.48229 20.5511 6.30455C20.6293 6.12682 20.6711 5.9352 20.6739 5.74104C20.6768 5.54688 20.6406 5.35413 20.5676 5.1742C20.4946 4.99426 20.3862 4.8308 20.2489 4.69349C20.1116 4.55619 19.9482 4.44783 19.7682 4.37483C19.5883 4.30183 19.3955 4.26567 19.2014 4.2685C19.0072 4.27133 18.8156 4.31309 18.6379 4.3913C18.4601 4.46952 18.2999 4.5826 18.1667 4.72385C17.9075 4.99856 17.7656 5.36344 17.7712 5.74104C17.7767 6.11865 17.9291 6.47924 18.1961 6.74628C18.4632 7.01331 18.8238 7.16576 19.2014 7.17127C19.579 7.17677 19.9439 7.0349 20.2186 6.77576Z" fill="#E2E2E2"/>
</svg>
