<svg width="25" height="26" viewBox="0 0 25 26" fill="none" xmlns="http://www.w3.org/2000/svg">
<path d="M23.377 0.939453H1.18555C0.651868 0.939453 0.220703 1.37062 0.220703 1.9043V24.0957C0.220703 24.6294 0.651868 25.0605 1.18555 25.0605H23.377C23.9106 25.0605 24.3418 24.6294 24.3418 24.0957V1.9043C24.3418 1.37062 23.9106 0.939453 23.377 0.939453ZM7.37562 21.4936H3.79666V9.98185H7.37562V21.4936ZM5.58765 8.40795C5.17737 8.40795 4.7763 8.28628 4.43516 8.05834C4.09403 7.83041 3.82815 7.50643 3.67114 7.12738C3.51413 6.74833 3.47305 6.33123 3.55309 5.92883C3.63313 5.52644 3.8307 5.15681 4.12081 4.8667C4.41093 4.57659 4.78055 4.37902 5.18295 4.29898C5.58535 4.21894 6.00244 4.26002 6.38149 4.41702C6.76054 4.57403 7.08452 4.83991 7.31246 5.18105C7.5404 5.52219 7.66206 5.92325 7.66206 6.33353C7.65905 7.47928 6.73038 8.40795 5.58765 8.40795ZM20.7749 21.4936H17.1989V15.8945C17.1989 14.5588 17.1748 12.8432 15.3386 12.8432C13.4783 12.8432 13.1918 14.2965 13.1918 15.798V21.4936H9.61889V9.98185H13.0501V11.5557H13.0984C13.5747 10.6512 14.7416 9.69541 16.4844 9.69541C20.1085 9.69541 20.7749 12.0804 20.7749 15.1799V21.4936Z" fill="#E2E2E2"/>
</svg>
