<svg width="158" height="77" viewBox="0 0 158 77" fill="none" xmlns="http://www.w3.org/2000/svg">
<path d="M46.001 64.7753H10.6591V64.2697H15.9886V15.1348H10.6591V14.6068H26.7831V15.1124H21.4536V64.2697H40.9651C46.6107 64.2697 47.4463 56.1124 47.8754 54.9663C47.9431 54.7528 48.3835 54.7528 48.4512 54.7528L46.001 64.7753Z" fill="#E2E2E2" stroke="#E2E2E2" stroke-width="0.25" stroke-miterlimit="10"/>
<path d="M32.5078 16.8539C32.1465 14.9888 33.0837 13.7753 34.7661 13.7753C36.4485 13.7753 37.4308 14.9888 37.0244 16.8539L35.0032 27.382H34.6419L32.5078 16.8539Z" fill="#E2E2E2" stroke="#E2E2E2" stroke-width="0.25" stroke-miterlimit="10"/>
<path d="M67.3982 64.8427L45.1655 15.1348H40.4005V14.6067H56.4568V15.1124H51.1273L62.9268 41.6404C62.1348 38.7086 61.725 35.6876 61.7073 32.6517C61.7073 19.8989 70.1984 13.382 77.041 13.382C81.6479 13.382 85.4643 16.3146 85.4643 22.191C85.3358 25.3812 84.5235 28.5072 83.0819 31.3595L67.974 64.8427H67.3982ZM82.585 31.2584C83.6609 29.0403 84.2499 26.6195 84.3126 24.1573C84.3692 22.9949 84.1807 21.8337 83.7591 20.7482C83.3375 19.6627 82.6922 18.6771 81.8647 17.8547C81.0372 17.0324 80.0459 16.3915 78.9546 15.9734C77.8632 15.5553 76.696 15.3691 75.5279 15.427C69.408 15.427 62.3509 20.6517 62.3509 32.1798C62.5145 37.9617 63.811 43.6562 66.1674 48.9438L70.3452 58.3258L82.585 31.2584Z" fill="#E2E2E2" stroke="#E2E2E2" stroke-width="0.25" stroke-miterlimit="10"/>
<path d="M85.4643 14.6068H101.622V15.1124H96.2588V64.2697H101.622V64.7753H85.4643V64.2697H90.7938V15.1348H85.4643V14.6068Z" fill="#E2E2E2" stroke="#E2E2E2" stroke-width="0.25" stroke-miterlimit="10"/>
<path d="M144.936 64.2697H149.69V64.7753H133.633V64.2697H138.963L132.775 50.236C132.856 50.8282 132.902 51.4248 132.911 52.0225C132.838 53.9569 132.19 55.8264 131.048 57.3933C126.655 63.4157 116.866 64.7753 109.876 64.7753H95.3442V64.2697H97.2864C98.0227 64.2213 98.7306 63.9682 99.3295 63.5391C99.9284 63.1101 100.394 62.5223 100.674 61.8427L122.195 14.3483H122.771L144.936 64.2697ZM130.11 57.7528C131.484 56.1206 132.278 54.0825 132.369 51.9551C132.369 46.9438 128.191 44.2135 123.516 44.2135C121.721 44.2516 119.954 44.6691 118.333 45.4382C111.107 48.3708 105.631 55.3933 101.385 61.7978L101.317 61.8764C100.662 63.3034 101.171 64.3034 102.537 64.3034H105.348C113.907 64.3483 124.713 64.1348 130.11 57.7528ZM119.745 20.9438L102.537 59.1461C106.929 52.9101 115.059 43.6742 123.561 43.6742C125.05 43.6293 126.53 43.9227 127.888 44.5321C129.245 45.1415 130.446 46.0508 131.398 47.191L119.745 20.9438Z" fill="#E2E2E2" stroke="#E2E2E2" stroke-width="0.25" stroke-miterlimit="10"/>
</svg>
